<svg width="100" height="31" viewBox="0 0 100 31" fill="none" xmlns="http://www.w3.org/2000/svg">
<g clip-path="url(#clip0_2103_9162)">
<g clip-path="url(#clip1_2103_9162)">
<g clip-path="url(#clip2_2103_9162)">
<mask id="mask0_2103_9162" style="mask-type:luminance" maskUnits="userSpaceOnUse" x="1" y="0" width="97" height="30">
<path d="M97.8762 0.200195H1.53809V29.2056H97.8762V0.200195Z" fill="white"/>
</mask>
<g mask="url(#mask0_2103_9162)">
<g opacity="0.4">
<path fill-rule="evenodd" clip-rule="evenodd" d="M61.308 22.8845C55.7315 27.0072 47.6211 29.2041 40.6253 29.2041C31.2938 29.2505 22.2802 25.8161 15.3457 19.5718C14.8392 19.0987 15.2776 18.456 15.9226 18.8287C22.6379 22.6933 30.1565 24.9513 37.8898 25.4261C45.6232 25.9009 53.3615 24.5796 60.4992 21.5656C61.443 21.1953 62.2207 22.213 61.308 22.8845Z" fill="white"/>
<path fill-rule="evenodd" clip-rule="evenodd" d="M63.6389 20.2147C62.9293 19.302 58.9081 19.7751 57.1162 20.0117C56.575 20.0797 56.4735 19.6065 56.9812 19.2685C60.1923 17.0046 65.4296 17.6797 66.0389 18.424C66.6481 19.1682 65.8704 24.4401 62.8623 26.9405C62.3893 27.312 61.9495 27.1089 62.1526 26.6023C62.8276 24.9131 64.3485 21.1609 63.6389 20.2147Z" fill="white"/>
<path fill-rule="evenodd" clip-rule="evenodd" d="M57.218 3.38468V1.19237C57.2141 1.1203 57.2255 1.04824 57.2513 0.980851C57.2772 0.913463 57.3169 0.852265 57.368 0.801232C57.419 0.750197 57.4801 0.71045 57.5475 0.684608C57.6149 0.658764 57.687 0.647402 57.7591 0.651226H67.5564C67.7044 0.647475 67.8479 0.702133 67.9559 0.803415C68.0639 0.904695 68.1276 1.04444 68.1334 1.19237V3.0512C68.1334 3.35582 67.8634 3.76084 67.3903 4.43584L62.3213 11.6682C64.2531 11.5641 66.178 11.9708 67.9026 12.8473C68.0522 12.933 68.1774 13.0557 68.266 13.2035C68.3548 13.3515 68.404 13.5196 68.409 13.692V16.0239C68.409 16.362 68.071 16.7335 67.6995 16.5304C66.1004 15.7028 64.325 15.2735 62.5244 15.2794C60.7238 15.2852 58.9513 15.7258 57.3575 16.5639C57.2768 16.5927 57.1904 16.6017 57.1056 16.59C57.0208 16.5781 56.94 16.546 56.8703 16.4962C56.8005 16.4464 56.744 16.3805 56.7052 16.3042C56.6664 16.2277 56.6468 16.1431 56.648 16.0573V13.8235C56.6147 13.3013 56.7445 12.7815 57.0194 12.3362L62.9041 3.9212H57.8005C57.6526 3.92495 57.5091 3.8703 57.4011 3.76902C57.2931 3.66774 57.2294 3.528 57.2236 3.38006L57.218 3.38468ZM21.496 17H18.518C18.3846 16.9868 18.2594 16.9299 18.1617 16.8384C18.0638 16.7468 17.9989 16.6256 17.9768 16.4935V1.22237C17.9825 1.07444 18.0463 0.934696 18.1542 0.833416C18.2622 0.732135 18.4057 0.677476 18.5537 0.681227H21.323C21.46 0.683092 21.5915 0.736029 21.6915 0.829719C21.7917 0.923408 21.8532 1.0511 21.8641 1.18776V3.1816H21.9322C22.1953 2.3574 22.7136 1.63817 23.4122 1.12783C24.1109 0.617487 24.9537 0.342446 25.8189 0.342446C26.6841 0.342446 27.5269 0.617487 28.2255 1.12783C28.9242 1.63817 29.4425 2.3574 29.7057 3.1816C30.0021 2.33186 30.5616 1.59865 31.3028 1.08828C32.0442 0.577916 32.9287 0.31693 33.8282 0.343151C34.4961 0.329678 35.1575 0.476055 35.7572 0.770103C36.3569 1.06415 36.8777 1.49734 37.276 2.03354C38.2222 3.31777 38.0191 5.1766 38.0191 6.83237V16.4981C38.0134 16.646 37.9497 16.7858 37.8417 16.8871C37.7337 16.9884 37.5901 17.0431 37.4422 17.0393H34.5021C34.3614 17.0308 34.2286 16.9711 34.1289 16.8714C34.0292 16.7717 33.9695 16.6389 33.961 16.4981V8.38774C34.0063 7.42965 33.9835 6.46956 33.8929 5.51468C33.8309 5.1082 33.6118 4.74231 33.2827 4.49584C32.9535 4.24938 32.5408 4.14207 32.1334 4.197C31.7453 4.20819 31.3692 4.33253 31.051 4.55475C30.7328 4.77698 30.4866 5.08737 30.3426 5.44774C30.0976 6.40731 30.0065 7.39964 30.0726 8.38774V16.4981C30.0668 16.646 30.0031 16.7858 29.8951 16.8871C29.7871 16.9884 29.6436 17.0431 29.4957 17.0393H26.5221C26.3814 17.0308 26.2486 16.9711 26.1489 16.8714C26.0492 16.7717 25.9895 16.6389 25.981 16.4981V8.38774C25.981 6.69736 26.251 4.16354 24.1557 4.16354C22.0268 4.16354 22.0937 6.59697 22.0937 8.38774V16.4981C22.0725 16.6426 21.9987 16.7742 21.8865 16.8677C21.7742 16.9612 21.6315 17.01 21.4857 17.0047L21.496 17ZM76.5829 0.338538C81.0102 0.338538 83.4103 4.12315 83.4103 8.95661C83.4103 13.6204 80.7737 17.3381 76.5829 17.3381C72.2571 17.3381 69.8907 13.5535 69.8907 8.8216C69.8572 4.05622 72.2559 0.338538 76.5829 0.338538ZM76.5829 3.48161C74.3905 3.48161 74.251 6.48968 74.251 8.34852C74.251 10.2074 74.2176 14.195 76.5495 14.195C78.848 14.195 78.983 10.9839 78.983 9.02468C79.0244 7.65894 78.8765 6.29404 78.5434 4.96892C78.4509 4.52636 78.2012 4.13223 77.8407 3.85962C77.48 3.587 77.0327 3.45436 76.5818 3.48623L76.5829 3.48161ZM89.1207 17H86.1472C86.0064 16.9916 85.8736 16.9318 85.7739 16.8322C85.6742 16.7325 85.6145 16.5997 85.606 16.4589V1.15431C85.6247 1.0144 85.6934 0.885978 85.7996 0.792851C85.9056 0.699724 86.0417 0.64817 86.183 0.64774H88.9522C89.078 0.651945 89.1989 0.697211 89.2966 0.776583C89.3944 0.855954 89.4635 0.965088 89.4934 1.08737V3.41928H89.5613C90.406 1.3239 91.5552 0.344277 93.6171 0.344277C94.3032 0.313107 94.9854 0.462008 95.5962 0.77616C96.2069 1.09031 96.7247 1.55879 97.0982 2.13505C97.876 3.35236 97.876 5.41313 97.876 6.90044V16.5327C97.8556 16.6691 97.7852 16.7929 97.6786 16.8804C97.572 16.9678 97.4368 17.0125 97.2991 17.0058H94.3255C94.1972 16.9937 94.0759 16.9415 93.9787 16.8566C93.8817 16.7717 93.8137 16.6584 93.7845 16.5327V8.21929C93.7845 6.53006 93.9876 4.0966 91.9257 4.0966C91.5523 4.11402 91.1917 4.23774 90.8863 4.4532C90.5808 4.66865 90.3434 4.96686 90.2018 5.31274C89.8402 6.23722 89.679 7.22789 89.7287 8.21929V16.4658C89.7099 16.6143 89.638 16.751 89.5262 16.8506C89.4144 16.9501 89.2703 17.0057 89.1207 17.007V17ZM49.411 9.69967C49.5215 10.788 49.3344 11.8858 48.8699 12.8762C48.6814 13.2676 48.3899 13.6003 48.0265 13.8385C47.6633 14.0768 47.242 14.2117 46.808 14.2285C45.6541 14.2285 44.9826 13.3493 44.9826 12.065C44.9826 9.52661 47.2464 9.057 49.4099 9.057L49.411 9.69967ZM52.419 16.9689C52.3228 17.053 52.2025 17.1048 52.0752 17.117C51.9479 17.1293 51.82 17.1012 51.7095 17.037C51.0211 16.4799 50.4374 15.8048 49.9857 15.0431C49.3964 15.7636 48.6456 16.335 47.794 16.7108C46.9426 17.0867 46.0146 17.2565 45.0853 17.2066C44.4754 17.2423 43.8651 17.1458 43.2961 16.9233C42.7272 16.7008 42.2131 16.3578 41.7893 15.9178C41.3655 15.478 41.042 14.9515 40.8409 14.3747C40.6397 13.7978 40.5659 13.1843 40.6244 12.5762C40.5894 11.5368 40.8756 10.5119 41.444 9.64104C42.0125 8.77015 42.8354 8.09562 43.801 7.70931C45.6149 7.10767 47.5021 6.75519 49.411 6.66159V6.29006C49.512 5.54787 49.3823 4.79257 49.0394 4.1266C48.8452 3.87467 48.5937 3.67268 48.3057 3.53742C48.0177 3.40217 47.7016 3.33754 47.3836 3.3489C46.8336 3.3009 46.285 3.45687 45.8425 3.78708C45.3999 4.1173 45.0943 4.59869 44.9836 5.13967C44.9156 5.40967 44.753 5.68082 44.4772 5.68082L41.604 5.37623C41.5347 5.36648 41.468 5.34281 41.408 5.30665C41.348 5.27049 41.2958 5.22258 41.2547 5.1658C41.2138 5.10901 41.1846 5.04451 41.169 4.97618C41.1535 4.90785 41.1519 4.83709 41.1644 4.76814C41.8405 1.25353 44.9837 0.205822 47.8222 0.205822C49.4534 0.136069 51.0538 0.665036 52.3221 1.69313C53.7748 3.04544 53.6399 4.86967 53.6399 6.83005V11.4604C53.6588 12.4893 54.056 13.4752 54.7557 14.2297C54.9587 14.4997 54.9922 14.8377 54.7557 15.0073C54.1084 15.5173 53.0248 16.4635 52.419 16.9689ZM10.3775 9.69967C10.488 10.788 10.301 11.8858 9.83637 12.8762C9.64789 13.2676 9.35637 13.6003 8.99311 13.8385C8.62984 14.0768 8.20856 14.2117 7.77446 14.2285C6.62062 14.2285 5.94908 13.3493 5.94908 12.065C5.94908 9.52661 8.21291 9.057 10.3764 9.057L10.3775 9.69967ZM13.3522 16.9689C13.2559 17.053 13.1356 17.1048 13.0083 17.117C12.881 17.1293 12.7531 17.1012 12.6425 17.037C11.9542 16.4799 11.3705 15.8048 10.9187 15.0431C10.3294 15.7636 9.5786 16.335 8.72718 16.7108C7.87575 17.0867 6.94769 17.2565 6.01831 17.2066C5.40848 17.2423 4.79813 17.1458 4.22919 16.9233C3.66025 16.7008 3.14621 16.3578 2.72239 15.9178C2.29857 15.478 1.975 14.9515 1.77392 14.3747C1.57285 13.7978 1.49904 13.1843 1.55754 12.5762C1.52251 11.5368 1.80867 10.5119 2.37708 9.64104C2.94549 8.77015 3.76852 8.09562 4.73407 7.70931C6.54801 7.10767 8.43526 6.75519 10.3441 6.66159V6.29006C10.4451 5.54787 10.3154 4.79257 9.97254 4.1266C9.77827 3.87467 9.52669 3.67268 9.23873 3.53742C8.95076 3.40217 8.6347 3.33754 8.31676 3.3489C7.76667 3.3009 7.21816 3.45687 6.77561 3.78708C6.33306 4.1173 6.02738 4.59869 5.91677 5.13967C5.84869 5.40967 5.68022 5.68082 5.41022 5.68082L2.53716 5.37623C2.46777 5.36648 2.40106 5.34281 2.34104 5.30665C2.28102 5.27049 2.22892 5.22258 2.18787 5.1658C2.14681 5.10901 2.11765 5.04451 2.10212 4.97618C2.0866 4.90785 2.08504 4.83709 2.09753 4.76814C2.77368 1.25353 5.91676 0.205822 8.75522 0.205822C10.3864 0.136069 11.9869 0.665036 13.2553 1.69313C14.708 3.04544 14.573 4.86967 14.573 6.83005V11.4604C14.592 12.4892 14.9892 13.475 15.6887 14.2297C15.8918 14.4997 15.9253 14.8377 15.6887 15.0073C15.046 15.5139 13.9649 16.46 13.3568 16.9689H13.3522Z" fill="white"/>
</g>
</g>
</g>
</g>
</g>
<defs>
<clipPath id="clip0_2103_9162">
<rect width="100" height="30" fill="white" transform="translate(0 0.200195)"/>
</clipPath>
<clipPath id="clip1_2103_9162">
<rect width="100" height="30" fill="white" transform="translate(0 0.200195)"/>
</clipPath>
<clipPath id="clip2_2103_9162">
<rect width="96.9231" height="30" fill="white" transform="translate(1.53809 0.200195)"/>
</clipPath>
</defs>
</svg>
