<svg width="60" height="61" viewBox="0 0 60 61" fill="none" xmlns="http://www.w3.org/2000/svg">
<g clip-path="url(#clip0_2103_8865)">
<g clip-path="url(#clip1_2103_8865)">
<path fill-rule="evenodd" clip-rule="evenodd" d="M56.368 31.3116C56.368 32.1258 55.8415 32.8474 55.0661 33.0963C53.2815 33.6278 51.9908 35.2886 51.9908 37.2484C51.9908 39.2081 53.2815 40.8689 55.0573 41.4254C55.8215 41.6718 56.3405 42.3822 56.3405 43.1851C56.368 44.0393 56.368 45.1035 56.368 46.0027C56.368 47.0382 55.5276 47.8787 54.4921 47.8787C46.3217 47.8787 13.888 47.8787 5.71774 47.8787C4.68222 47.8787 3.8418 47.0382 3.8418 46.0027C3.8418 45.1035 3.8418 44.0393 3.8418 43.1851C3.8418 42.3709 4.36831 41.6493 5.1437 41.4004C6.92834 40.8689 8.21899 39.2081 8.21899 37.2484C8.21899 35.2886 6.92835 33.6278 5.15246 33.0713C4.38833 32.8249 3.86932 32.1145 3.86932 31.3116C3.8418 30.7113 3.8418 30.0285 3.8418 29.4282C3.8418 28.614 4.36831 27.8924 5.1437 27.6436C6.92834 27.112 8.21899 25.4512 8.21899 23.4915C8.21899 21.5317 6.92835 19.8709 5.15246 19.3144C4.38833 19.068 3.86932 18.3576 3.86932 17.5547C3.8418 16.7006 3.8418 15.6363 3.8418 14.7371C3.8418 13.7016 4.68222 12.8612 5.71774 12.8612H54.4921C55.5276 12.8612 56.368 13.7016 56.368 14.7371V17.5547C56.368 18.3689 55.8415 19.0905 55.0661 19.3394C53.2815 19.8709 51.9908 21.5317 51.9908 23.4915C51.9908 25.4512 53.2815 27.112 55.0573 27.6686C55.8215 27.9149 56.3405 28.6253 56.3405 29.4282C56.368 30.0285 56.368 30.7113 56.368 31.3116Z" fill="#FDF0EA"/>
<path fill-rule="evenodd" clip-rule="evenodd" d="M32.1644 23.7447C32.5096 23.2141 33.1006 22.8945 33.7337 22.8945C34.3669 22.8945 34.9578 23.2141 35.303 23.7447C35.6362 24.2528 35.9573 24.7457 36.1955 25.1105C36.4472 25.4949 36.8316 25.7738 37.2748 25.8944C37.6954 26.0075 38.2622 26.1613 38.8487 26.3211C39.4607 26.4854 39.9461 26.9482 40.1421 27.5512C40.3381 28.1527 40.216 28.8129 39.8195 29.3059C39.4381 29.7792 39.0688 30.2376 38.7959 30.5767C38.508 30.934 38.3617 31.3862 38.3844 31.846C38.4055 32.2802 38.4341 32.8681 38.4642 33.4742C38.4959 34.1073 38.2065 34.7118 37.6939 35.0842C37.1829 35.4565 36.5165 35.5455 35.9256 35.3193C35.3573 35.1038 34.807 34.8942 34.4015 34.7389C33.9704 34.5761 33.497 34.5761 33.0659 34.7389C32.6604 34.8942 32.1101 35.1038 31.5418 35.3193C30.9509 35.5455 30.2846 35.4565 29.7735 35.0842C29.261 34.7118 28.9715 34.1073 29.0032 33.4742C29.0333 32.8681 29.062 32.2802 29.0831 31.846C29.1057 31.3862 28.9595 30.934 28.6715 30.5767C28.3987 30.2376 28.0293 29.7792 27.6479 29.3059C27.2515 28.8129 27.1293 28.1527 27.3253 27.5512C27.5213 26.9482 28.0067 26.4854 28.6188 26.3211C29.2052 26.1613 29.772 26.0075 30.1926 25.8944C30.6358 25.7738 31.0202 25.4949 31.272 25.1105C31.5102 24.7457 31.8312 24.2528 32.1644 23.7447Z" fill="white"/>
<path fill-rule="evenodd" clip-rule="evenodd" d="M22.6018 46.6281C23.2922 46.6281 23.8524 47.1883 23.8524 47.8787C23.8524 48.569 23.2922 49.1293 22.6018 49.1293C21.9115 49.1293 21.3512 48.569 21.3512 47.8787C21.3512 47.1883 21.9115 46.6281 22.6018 46.6281ZM52.6168 14.1118H54.4927C54.8379 14.1118 55.1181 14.3919 55.1181 14.7371V17.5548C55.1181 17.8174 54.953 18.0513 54.7079 18.1413C52.4054 18.8316 50.7409 20.9677 50.7409 23.4915C50.7409 26.0102 52.4005 28.1451 54.6841 28.8617C54.923 28.9392 55.0905 29.1693 55.0905 29.4282C55.0905 29.4482 55.0905 29.467 55.0918 29.4857C55.1181 30.0673 55.1181 30.7301 55.1181 31.3116C55.1181 31.5743 54.953 31.8081 54.7079 31.8982C52.4054 32.5885 50.7409 34.7246 50.7409 37.2484C50.7409 39.7671 52.4005 41.9019 54.6841 42.6186C54.923 42.6961 55.0905 42.9262 55.0905 43.1851V43.2264C55.1181 44.068 55.1181 45.116 55.1181 46.0027C55.1181 46.3479 54.8379 46.6281 54.4927 46.6281H26.3537C25.6633 46.6281 25.1031 47.1883 25.1031 47.8787C25.1031 48.569 25.6633 49.1293 26.3537 49.1293H54.4927C56.2199 49.1293 57.6193 47.7299 57.6193 46.0027C57.6193 45.0948 57.6193 44.0205 57.5918 43.1551C57.5818 41.8256 56.7151 40.6451 55.4407 40.2349C55.4382 40.2349 55.4357 40.2336 55.4332 40.2323C54.1638 39.8346 53.2421 38.6478 53.2421 37.2484C53.2421 35.8564 54.1551 34.6733 55.4232 34.2956C55.432 34.2931 55.4407 34.2906 55.4495 34.2869C56.7426 33.8717 57.6193 32.6698 57.6193 31.3116C57.6193 30.7026 57.6193 30.0097 57.5918 29.3982C57.578 28.065 56.7126 26.8869 55.4407 26.478C55.4382 26.478 55.4357 26.4767 55.4332 26.4755C54.1638 26.0778 53.2421 24.8909 53.2421 23.4915C53.2421 22.0995 54.1551 20.9165 55.4232 20.5388C55.432 20.5363 55.4407 20.5337 55.4495 20.53C56.7426 20.1148 57.6193 18.9129 57.6193 17.5548V14.7371C57.6193 13.01 56.2199 11.6106 54.4927 11.6106H52.6168C51.9265 11.6106 51.3662 12.1708 51.3662 12.8612C51.3662 13.5515 51.9265 14.1118 52.6168 14.1118ZM17.5993 46.6281V43.4915C17.5993 42.8011 17.039 42.2409 16.3487 42.2409C15.6583 42.2409 15.0981 42.8011 15.0981 43.4915V46.6281H5.71836C5.37319 46.6281 5.09305 46.3479 5.09305 46.0027V43.1851C5.09305 42.9225 5.25813 42.6886 5.50326 42.5986C7.80566 41.9082 9.47024 39.7721 9.47024 37.2484C9.47024 34.7296 7.81066 32.5948 5.52702 31.8782C5.28815 31.8006 5.12057 31.5705 5.12057 31.3116C5.12057 31.2916 5.12056 31.2729 5.11931 31.2541C5.09304 30.6726 5.09305 30.0098 5.09305 29.4282C5.09305 29.1656 5.25813 28.9317 5.50326 28.8417C7.80566 28.1513 9.47024 26.0153 9.47024 23.4915C9.47024 20.9727 7.81066 18.8379 5.52702 18.1213C5.28815 18.0438 5.12057 17.8136 5.12057 17.5548C5.12057 17.541 5.12057 17.5273 5.12057 17.5135C5.09305 16.6718 5.09305 15.6238 5.09305 14.7371C5.09305 14.3919 5.37319 14.1118 5.71836 14.1118H15.0981V18.479C15.0981 19.1693 15.6583 19.7296 16.3487 19.7296C17.039 19.7296 17.5993 19.1693 17.5993 18.479V14.1118H48.8649C49.5553 14.1118 50.1156 13.5515 50.1156 12.8612C50.1156 12.1708 49.5553 11.6106 48.8649 11.6106C48.8649 11.6106 12.5468 11.6106 5.71836 11.6106C3.99125 11.6106 2.5918 13.01 2.5918 14.7371C2.5918 15.6451 2.5918 16.7194 2.61932 17.5848C2.62932 18.9142 3.49601 20.0948 4.77039 20.505C4.77289 20.505 4.77539 20.5063 4.77789 20.5075C6.04728 20.9052 6.96899 22.092 6.96899 23.4915C6.96899 24.8834 6.05603 26.0665 4.78789 26.4442C4.77914 26.4467 4.77039 26.4492 4.76163 26.453C3.46849 26.8682 2.5918 28.07 2.5918 29.4282C2.5918 30.0373 2.5918 30.7301 2.61932 31.3417C2.63307 32.6748 3.49851 33.8529 4.77039 34.2619C4.77289 34.2619 4.77539 34.2631 4.77789 34.2644C6.04728 34.6621 6.96899 35.8489 6.96899 37.2484C6.96899 38.6403 6.05603 39.8234 4.78789 40.2011C4.77914 40.2036 4.77039 40.2061 4.76163 40.2099C3.46849 40.6251 2.5918 41.8269 2.5918 43.1851V46.0027C2.5918 47.7299 3.99125 49.1293 5.71836 49.1293H18.8499C19.5403 49.1293 20.1006 48.569 20.1006 47.8787C20.1006 47.1883 19.5403 46.6281 18.8499 46.6281H17.5993ZM15.0981 33.4865V38.489C15.0981 39.1793 15.6583 39.7396 16.3487 39.7396C17.039 39.7396 17.5993 39.1793 17.5993 38.489V33.4865C17.5993 32.7961 17.039 32.2359 16.3487 32.2359C15.6583 32.2359 15.0981 32.7961 15.0981 33.4865ZM15.0981 23.4815V28.484C15.0981 29.1743 15.6583 29.7346 16.3487 29.7346C17.039 29.7346 17.5993 29.1743 17.5993 28.484V23.4815C17.5993 22.7911 17.039 22.2309 16.3487 22.2309C15.6583 22.2309 15.0981 22.7911 15.0981 23.4815Z" fill="#EB662B"/>
<path fill-rule="evenodd" clip-rule="evenodd" d="M31.2226 23.2975L30.3297 24.664C30.2452 24.7922 30.117 24.8857 29.9692 24.9249L28.3946 25.3518C27.375 25.6278 26.5651 26.4 26.2378 27.4045C25.912 28.4075 26.1141 29.5085 26.7762 30.3305L27.8004 31.602C27.8969 31.7211 27.9452 31.8719 27.9376 32.0243L27.8562 33.6547C27.8049 34.7089 28.2875 35.7195 29.1412 36.3394C29.9964 36.9593 31.1049 37.1071 32.0913 36.7315L33.6162 36.1508C33.761 36.0965 33.9178 36.0965 34.0611 36.1508L35.5875 36.7315C36.5739 37.1071 37.6824 36.9593 38.5376 36.3394C39.3913 35.7195 39.8739 34.7089 39.8226 33.6547L39.7412 32.0243C39.7336 31.8719 39.7819 31.7211 39.8784 31.602L40.9025 30.3305C41.5647 29.5085 41.7668 28.4075 41.441 27.4045C41.1137 26.4 40.3038 25.6278 39.2842 25.3518L37.7096 24.9249C37.5618 24.8857 37.4336 24.7922 37.3491 24.664L36.4562 23.2975C35.8801 22.4137 34.8952 21.8812 33.8394 21.8812C32.7836 21.8812 31.7987 22.4137 31.2226 23.2975ZM33.316 24.6655C33.4322 24.489 33.6282 24.382 33.8394 24.382C34.0506 24.382 34.2466 24.489 34.3628 24.6655L35.2556 26.032C35.6749 26.6745 36.316 27.139 37.055 27.3396L38.6311 27.7665C38.8347 27.8223 38.9961 27.9761 39.061 28.1767C39.1273 28.3773 39.0866 28.5975 38.9539 28.7619L37.9298 30.0334C37.4502 30.6306 37.2043 31.3833 37.2435 32.1495L37.3235 33.7784C37.334 33.9895 37.2375 34.1916 37.0671 34.3153C36.8966 34.4405 36.6749 34.4692 36.4773 34.3937L34.9525 33.8131C34.2346 33.5416 33.4442 33.5416 32.7263 33.8131L31.2015 34.3937C31.0039 34.4692 30.7822 34.4405 30.6117 34.3153C30.4413 34.1916 30.3448 33.9895 30.3553 33.7784L30.4353 32.1495C30.4745 31.3833 30.2286 30.6306 29.749 30.0334L28.7249 28.7619C28.5922 28.5975 28.5515 28.3773 28.6178 28.1767C28.6827 27.9761 28.8441 27.8223 29.0477 27.7665L30.6238 27.3396C31.3628 27.139 32.0039 26.6745 32.4232 26.032L33.316 24.6655Z" fill="#EB662B"/>
</g>
</g>
<defs>
<clipPath id="clip0_2103_8865">
<rect width="60" height="60" fill="white" transform="translate(0 0.129883)"/>
</clipPath>
<clipPath id="clip1_2103_8865">
<rect width="60" height="60" fill="white" transform="translate(0 0.129883)"/>
</clipPath>
</defs>
</svg>
